<svg width="32" height="32" viewBox="0 0 32 32" fill="none" xmlns="http://www.w3.org/2000/svg">
<path d="M27.725 24.1937L19.525 15.9625L27.7437 7.8375C28.0812 7.5 28.0812 6.95 27.7437 6.6125L25.4062 4.2625C25.2437 4.1 25.025 4.0125 24.7937 4.0125C24.5625 4.0125 24.3437 4.10625 24.1812 4.2625L16 12.3625L7.80623 4.26875C7.64373 4.10625 7.42498 4.01875 7.19373 4.01875C6.96248 4.01875 6.74373 4.1125 6.58123 4.26875L4.24998 6.61875C3.91248 6.95625 3.91248 7.50625 4.24998 7.84375L12.4687 15.9687L4.27498 24.1937C4.11248 24.3562 4.01873 24.575 4.01873 24.8062C4.01873 25.0375 4.10623 25.2562 4.27498 25.4187L6.61248 27.7687C6.78123 27.9375 6.99998 28.025 7.22498 28.025C7.44373 28.025 7.66873 27.9437 7.83748 27.7687L16 19.5687L24.1687 27.7625C24.3375 27.9312 24.5562 28.0187 24.7812 28.0187C25 28.0187 25.225 27.9375 25.3937 27.7625L27.7312 25.4125C27.8937 25.25 27.9875 25.0312 27.9875 24.8C27.9812 24.575 27.8875 24.3562 27.725 24.1937Z" fill="#2C3E50"/>
</svg>
