<svg width="160" height="32" viewBox="0 0 160 32" fill="none" xmlns="http://www.w3.org/2000/svg">
<g clip-path="url(#clip0)">
<g clip-path="url(#clip1)">
<path d="M30.304 15.9041L32.9593 15.9041C33.4433 15.9041 33.8357 15.5117 33.8357 15.0277C33.8358 14.5436 33.4433 14.1513 32.9593 14.1512L30.304 14.1512C29.82 14.1511 29.4275 14.5436 29.4275 15.0276C29.4275 15.5116 29.8198 15.9041 30.304 15.9041Z" fill="white"/>
<path d="M30.26 21.7099L28.9324 20.3823C28.5901 20.04 28.0351 20.04 27.6929 20.3823C27.3506 20.7245 27.3506 21.2795 27.6929 21.6217L29.0205 22.9494C29.3628 23.2917 29.9178 23.2917 30.26 22.9494C30.6023 22.6071 30.6023 22.0522 30.26 21.7099Z" fill="white"/>
<path d="M27.6929 9.67301C28.0351 10.0153 28.5901 10.0153 28.9324 9.67301L30.26 8.34539C30.6023 8.00312 30.6023 7.44816 30.26 7.10589C29.9177 6.76363 29.3628 6.76363 29.0205 7.10589L27.6929 8.43351C27.3506 8.77578 27.3506 9.33074 27.6929 9.67301Z" fill="white"/>
<path d="M3.75127 11.4959C3.26766 11.4959 2.87478 11.8883 2.87483 12.3723L2.87483 17.6829C2.87478 18.1669 3.26713 18.5594 3.75127 18.5594L5.8283 18.5594L5.8283 11.496L3.75127 11.4959Z" fill="white"/>
<path d="M13.9809 22.7263L7.58125 20.4224L7.58125 26.3722C7.58121 26.8562 7.9736 27.2487 8.4577 27.2487L13.1044 27.2487C13.5885 27.2487 13.9809 26.8563 13.9809 26.3722L13.9809 22.7263Z" fill="white"/>
<path d="M25.2061 6.39802C25.2061 6.11261 25.067 5.84509 24.8336 5.68094C24.6 5.51683 24.3013 5.47671 24.0327 5.57339L7.58119 11.4959L7.58115 18.5593L24.0327 24.4819C24.3013 24.5786 24.6001 24.5384 24.8336 24.3743C25.0671 24.2102 25.2061 23.9427 25.2061 23.6573L25.2061 6.39802Z" fill="white"/>
</g>
<path d="M49.5938 23.822H45.4536V11.8838H41.7118V8.49829H53.3251V11.8838H49.5938V23.822Z" fill="white"/>
<path d="M66.6155 17.8581C66.6155 19.8007 66.0914 21.317 65.0433 22.4071C64.0022 23.4901 62.5418 24.0317 60.6621 24.0317C58.8593 24.0317 57.4234 23.4762 56.3543 22.3651C55.2921 21.2541 54.7611 19.7518 54.7611 17.8581C54.7611 15.9226 55.2817 14.4203 56.3228 13.3512C57.3709 12.2751 58.8383 11.737 60.725 11.737C61.8919 11.737 62.9226 11.9851 63.817 12.4812C64.7114 12.9773 65.3997 13.6901 65.8818 14.6194C66.3709 15.5418 66.6155 16.6213 66.6155 17.8581ZM58.9222 17.8581C58.9222 18.8783 59.0584 19.6574 59.331 20.1955C59.6035 20.7265 60.0612 20.9921 60.704 20.9921C61.3399 20.9921 61.7871 20.7265 62.0456 20.1955C62.3112 19.6574 62.4439 18.8783 62.4439 17.8581C62.4439 16.8449 62.3112 16.0798 62.0456 15.5627C61.7801 15.0456 61.3259 14.7871 60.6831 14.7871C60.0542 14.7871 59.6035 15.0456 59.331 15.5627C59.0584 16.0728 58.9222 16.838 58.9222 17.8581Z" fill="white"/>
<path d="M72.6528 24.0317C71.8073 24.0317 71.0666 23.7906 70.4307 23.3085C69.8018 22.8263 69.3127 22.1171 68.9633 21.1807C68.6209 20.2444 68.4497 19.1508 68.4497 17.9001C68.4497 15.9715 68.8376 14.4622 69.6132 13.3721C70.3888 12.2821 71.4544 11.737 72.81 11.737C73.4738 11.737 74.0538 11.8698 74.5499 12.1353C75.053 12.4008 75.5107 12.8481 75.923 13.4769H76.0068C75.874 12.5476 75.8077 11.6182 75.8077 10.6889V7.51304H79.9373V23.822H76.8453L75.9649 22.3232H75.8077C75.1019 23.4622 74.0503 24.0317 72.6528 24.0317ZM74.3298 20.7929C74.9866 20.7929 75.4478 20.5868 75.7133 20.1745C75.9858 19.7623 76.1326 19.1264 76.1535 18.2669V17.942C76.1535 16.8939 76.0033 16.1497 75.7028 15.7095C75.4024 15.2623 74.9307 15.0387 74.2879 15.0387C73.7498 15.0387 73.3306 15.2937 73.0301 15.8038C72.7366 16.3069 72.5899 17.0266 72.5899 17.963C72.5899 18.8853 72.7401 19.5876 73.0406 20.0697C73.341 20.5519 73.7708 20.7929 74.3298 20.7929Z" fill="white"/>
<path d="M90.5235 23.822L89.7374 22.2498H89.6535C89.1015 22.9346 88.539 23.4028 87.966 23.6543C87.3931 23.9059 86.6524 24.0317 85.744 24.0317C84.626 24.0317 83.7455 23.6963 83.1027 23.0255C82.4598 22.3546 82.1384 21.4113 82.1384 20.1955C82.1384 18.9307 82.5786 17.9909 83.4591 17.376C84.3395 16.7541 85.6147 16.4047 87.2848 16.3279L89.2657 16.265V16.0973C89.2657 15.119 88.7836 14.6299 87.8193 14.6299C86.9528 14.6299 85.8523 14.9234 84.5177 15.5103L83.3333 12.8061C84.7168 12.0934 86.4637 11.737 88.574 11.737C90.0973 11.737 91.2747 12.1144 92.1062 12.869C92.9447 13.6237 93.3639 14.6788 93.3639 16.0344V23.822H90.5235ZM87.4839 21.1388C87.98 21.1388 88.4028 20.9816 88.7521 20.6671C89.1085 20.3527 89.2867 19.9439 89.2867 19.4408V18.5185L88.3434 18.5604C86.9948 18.6093 86.3205 19.1054 86.3205 20.0487C86.3205 20.7755 86.7083 21.1388 87.4839 21.1388Z" fill="white"/>
<path d="M94.716 11.9467H99.0344L101.047 18.7595C101.145 19.1159 101.211 19.5456 101.246 20.0487H101.33C101.386 19.5666 101.47 19.1439 101.581 18.7805L103.646 11.9467H107.828L103.133 24.5767C102.532 26.1838 101.791 27.3193 100.911 27.9831C100.037 28.647 98.8946 28.9789 97.4831 28.9789C96.9381 28.9789 96.3791 28.9195 95.8061 28.8007V25.5829C96.1764 25.6668 96.5992 25.7087 97.0743 25.7087C97.4377 25.7087 97.7556 25.6388 98.0281 25.4991C98.3007 25.3593 98.5382 25.1602 98.7409 24.9016C98.9435 24.6501 99.1601 24.2343 99.3907 23.6543L94.716 11.9467Z" fill="white"/>
<path d="M113.572 23.822H109.495V8.49829H118.551V11.8209H113.572V14.7452H118.163V18.0678H113.572V23.822Z" fill="white"/>
<path d="M126.558 24.0317C124.581 24.0317 123.044 23.5076 121.947 22.4595C120.857 21.4043 120.312 19.9055 120.312 17.963C120.312 15.9575 120.818 14.4203 121.831 13.3512C122.845 12.2751 124.291 11.737 126.171 11.737C127.959 11.737 129.339 12.2052 130.311 13.1415C131.289 14.0709 131.778 15.4125 131.778 17.1664V18.9901H124.452C124.48 19.6539 124.721 20.1745 125.175 20.5519C125.636 20.9292 126.261 21.1178 127.051 21.1178C127.771 21.1178 128.431 21.0515 129.032 20.9187C129.64 20.7789 130.297 20.5449 131.003 20.2164V23.1617C130.36 23.4901 129.696 23.7172 129.011 23.843C128.326 23.9688 127.509 24.0317 126.558 24.0317ZM126.317 14.5251C125.835 14.5251 125.43 14.6788 125.102 14.9862C124.78 15.2867 124.591 15.7619 124.536 16.4117H128.057C128.043 15.8387 127.879 15.381 127.565 15.0387C127.257 14.6963 126.841 14.5251 126.317 14.5251Z" fill="white"/>
<path d="M139.828 24.0317C137.85 24.0317 136.313 23.5076 135.216 22.4595C134.126 21.4043 133.581 19.9055 133.581 17.963C133.581 15.9575 134.088 14.4203 135.101 13.3512C136.114 12.2751 137.56 11.737 139.44 11.737C141.229 11.737 142.609 12.2052 143.58 13.1415C144.558 14.0709 145.048 15.4125 145.048 17.1664V18.9901H137.721C137.749 19.6539 137.99 20.1745 138.444 20.5519C138.905 20.9292 139.531 21.1178 140.32 21.1178C141.04 21.1178 141.7 21.0515 142.301 20.9187C142.909 20.7789 143.566 20.5449 144.272 20.2164V23.1617C143.629 23.4901 142.965 23.7172 142.28 23.843C141.596 23.9688 140.778 24.0317 139.828 24.0317ZM139.587 14.5251C139.105 14.5251 138.699 14.6788 138.371 14.9862C138.049 15.2867 137.861 15.7619 137.805 16.4117H141.327C141.313 15.8387 141.148 15.381 140.834 15.0387C140.527 14.6963 140.111 14.5251 139.587 14.5251Z" fill="white"/>
<path d="M151.053 24.0317C150.208 24.0317 149.467 23.7906 148.831 23.3085C148.202 22.8263 147.713 22.1171 147.364 21.1807C147.022 20.2444 146.85 19.1508 146.85 17.9001C146.85 15.9715 147.238 14.4622 148.014 13.3721C148.789 12.2821 149.855 11.737 151.211 11.737C151.874 11.737 152.454 11.8698 152.95 12.1353C153.454 12.4008 153.911 12.8481 154.324 13.4769H154.407C154.275 12.5476 154.208 11.6182 154.208 10.6889V7.51304H158.338V23.822H155.246L154.365 22.3232H154.208C153.503 23.4622 152.451 24.0317 151.053 24.0317ZM152.73 20.7929C153.387 20.7929 153.848 20.5868 154.114 20.1745C154.386 19.7623 154.533 19.1264 154.554 18.2669V17.942C154.554 16.8939 154.404 16.1497 154.103 15.7095C153.803 15.2623 153.331 15.0387 152.688 15.0387C152.15 15.0387 151.731 15.2937 151.431 15.8038C151.137 16.3069 150.99 17.0266 150.99 17.963C150.99 18.8853 151.141 19.5876 151.441 20.0697C151.742 20.5519 152.171 20.7929 152.73 20.7929Z" fill="white"/>
</g>
<defs>
<clipPath id="clip0">
<rect width="160" height="32" fill="white"/>
</clipPath>
<clipPath id="clip1">
<rect width="32.1987" height="32.1987" fill="white" transform="translate(2)"/>
</clipPath>
</defs>
</svg>
